<svg xmlns="http://www.w3.org/2000/svg" width="137.062" height="16.719" viewBox="0 0 137.062 16.719">
  <defs>
    <style>
      .cls-1 {
        fill: #fff;
        fill-rule: evenodd;
      }
    </style>
  </defs>
  <path id="header-logo.svg" class="cls-1" d="M344.824,801.775a24.41,24.41,0,0,0,3.24.192c2.641,0,4.465-.48,5.593-1.512a4.36,4.36,0,0,0,1.368-3.24,4.17,4.17,0,0,0-3.336-4.057V793.11a3.841,3.841,0,0,0,2.736-3.552,3.392,3.392,0,0,0-1.344-2.856,6.687,6.687,0,0,0-4.441-1.176,20.233,20.233,0,0,0-3.816.336v15.913Zm2.088-14.5a8.956,8.956,0,0,1,1.848-.144c2.113,0,3.553.744,3.553,2.64,0,1.56-1.3,2.712-3.5,2.712h-1.9v-5.208Zm0,6.792h1.728c2.281,0,4.177.912,4.177,3.121,0,2.352-1.992,3.144-4.153,3.144a11.157,11.157,0,0,1-1.752-.1V794.07Zm13.32-8.424v16.177h2.088v-7.585h7.825v7.585h2.112V785.646h-2.112v6.768H362.32v-6.768h-2.088Zm18.048,16.177h2.088v-7.009h1.968c1.9,0.072,2.76.913,3.24,3.145a20.842,20.842,0,0,0,1.081,3.864h2.16a25.745,25.745,0,0,1-1.248-4.44c-0.384-1.68-1.128-2.833-2.377-3.265v-0.072a4.247,4.247,0,0,0,3.049-4.128,4.029,4.029,0,0,0-1.272-3.072c-1.009-.912-2.449-1.32-4.681-1.32a21.749,21.749,0,0,0-4.008.336v15.961Zm2.088-14.5a8.59,8.59,0,0,1,2.064-.192c2.208,0.024,3.72.936,3.72,3.024,0,1.848-1.416,3.072-3.648,3.072h-2.136v-5.9Zm19.848-1.944c-4.32,0-7.513,3.36-7.513,8.5,0,4.9,3,8.209,7.273,8.209,4.128,0,7.513-2.952,7.513-8.521C407.489,788.766,404.632,785.382,400.216,785.382Zm-0.1,1.7c3.48,0,5.16,3.36,5.16,6.576,0,3.673-1.872,6.721-5.184,6.721-3.288,0-5.16-3.1-5.16-6.553C394.936,790.278,396.664,787.086,400.12,787.086Zm26.521,14.737h2.04l-1.008-16.177h-2.665l-2.88,7.824c-0.72,2.04-1.3,3.817-1.7,5.449h-0.072c-0.408-1.68-.96-3.457-1.632-5.449l-2.76-7.824H413.3l-1.128,16.177h1.992l0.432-6.937c0.145-2.424.265-5.136,0.313-7.152h0.048c0.456,1.92,1.1,4.008,1.872,6.288l2.616,7.7h1.584l2.856-7.849c0.816-2.232,1.488-4.248,2.04-6.144h0.072c-0.024,2.016.12,4.728,0.241,6.984Zm15.767-5.088,1.728,5.088h2.232l-5.52-16.177h-2.521l-5.5,16.177h2.16l1.68-5.088h5.737ZM437.1,795.1l1.585-4.68c0.312-.984.576-1.968,0.816-2.928h0.048c0.24,0.936.48,1.9,0.84,2.952l1.584,4.656H437.1Zm20.233-9.72c-4.321,0-7.513,3.36-7.513,8.5,0,4.9,3,8.209,7.273,8.209,4.128,0,7.512-2.952,7.512-8.521C464.608,788.766,461.752,785.382,457.336,785.382Zm-0.1,1.7c3.48,0,5.16,3.36,5.16,6.576,0,3.673-1.872,6.721-5.184,6.721-3.289,0-5.161-3.1-5.161-6.553C452.055,790.278,453.783,787.086,457.24,787.086Zm14.447,14.737V794.91c0-2.688-.048-4.632-0.168-6.672l0.072-.024a51.344,51.344,0,0,0,3.024,5.4l5.137,8.209h2.112V785.646H479.9v6.768c0,2.52.048,4.489,0.24,6.649l-0.048.024a45.881,45.881,0,0,0-2.9-5.257L472,785.646h-2.28v16.177h1.968Z" transform="translate(-344.813 -785.375)"/>
</svg>
